<svg width="24" height="24" viewBox="0 0 24 24" fill="none" xmlns="http://www.w3.org/2000/svg">
<path fill-rule="evenodd" clip-rule="evenodd" d="M5.25 10C5.25 7.21173 7.47018 3.25 12 3.25C16.5298 3.25 18.75 7.21173 18.75 10C18.75 11.1532 18.3697 12.3084 17.93 13.2538C17.4874 14.2054 16.9554 15.0063 16.5857 15.4685L12.5857 20.4685C12.4433 20.6464 12.2278 20.75 12 20.75C11.7722 20.75 11.5567 20.6464 11.4143 20.4685L7.41435 15.4685C7.04457 15.0063 6.51255 14.2054 6.06996 13.2538C5.63025 12.3084 5.25 11.1532 5.25 10ZM12 4.75C8.52982 4.75 6.75 7.78827 6.75 10C6.75 10.8468 7.03641 11.7749 7.43004 12.6212C7.82078 13.4613 8.28877 14.1604 8.58565 14.5315L12 18.7994L15.4143 14.5315C15.7112 14.1604 16.1792 13.4613 16.57 12.6212C16.9636 11.7749 17.25 10.8468 17.25 10C17.25 7.78827 15.4702 4.75 12 4.75ZM12 8.75C11.3096 8.75 10.75 9.30964 10.75 10C10.75 10.6904 11.3096 11.25 12 11.25C12.6904 11.25 13.25 10.6904 13.25 10C13.25 9.30964 12.6904 8.75 12 8.75ZM9.25 10C9.25 8.48122 10.4812 7.25 12 7.25C13.5188 7.25 14.75 8.48122 14.75 10C14.75 11.5188 13.5188 12.75 12 12.75C10.4812 12.75 9.25 11.5188 9.25 10Z" fill="#121210"/>
</svg>
