<svg width="24" height="24" viewBox="0 0 24 24" fill="none" xmlns="http://www.w3.org/2000/svg">
<path fill-rule="evenodd" clip-rule="evenodd" d="M4.78832 11.25H8.3079C8.32515 11.0689 8.3461 10.8891 8.37049 10.7108C8.67982 8.44981 9.54187 6.4241 10.4563 4.9147C7.43164 5.57061 5.11061 8.11409 4.78832 11.25ZM12 5.27878C11.0903 6.66034 10.1644 8.66494 9.85664 10.9142C9.84141 11.0255 9.82768 11.1375 9.81554 11.25H14.1845C14.1723 11.1375 14.1586 11.0255 14.1434 10.9142C13.8356 8.66494 12.9097 6.66034 12 5.27878ZM14.2461 12.75H9.75388C9.8087 14.7411 10.4272 16.8397 12 18.8388C13.5728 16.8397 14.1913 14.7411 14.2461 12.75ZM10.2941 19.0482C8.8771 16.9706 8.30362 14.8049 8.25376 12.75H4.78832C5.10483 15.8296 7.34897 18.3379 10.2941 19.0482ZM13.7059 19.0482C15.1229 16.9706 15.6964 14.8049 15.7462 12.75H19.2117C18.8952 15.8296 16.651 18.3379 13.7059 19.0482ZM19.2117 11.25H15.6921C15.6748 11.0689 15.6539 10.8891 15.6295 10.7108C15.3202 8.44982 14.4581 6.4241 13.5437 4.9147C16.5684 5.57061 18.8894 8.11409 19.2117 11.25ZM3.25 12C3.25 7.16751 7.16751 3.25 12 3.25C16.8325 3.25 20.75 7.16751 20.75 12C20.75 16.8325 16.8325 20.75 12 20.75C7.16751 20.75 3.25 16.8325 3.25 12Z" fill="#121210"/>
</svg>
