<svg width="24" height="24" viewBox="0 0 24 24" fill="none" xmlns="http://www.w3.org/2000/svg">
<path fill-rule="evenodd" clip-rule="evenodd" d="M12 4.75C7.99594 4.75 4.75 7.99594 4.75 12C4.75 16.0041 7.99594 19.25 12 19.25C16.0041 19.25 19.25 16.0041 19.25 12C19.25 7.99594 16.0041 4.75 12 4.75ZM3.25 12C3.25 7.16751 7.16751 3.25 12 3.25C16.8325 3.25 20.75 7.16751 20.75 12C20.75 16.8325 16.8325 20.75 12 20.75C7.16751 20.75 3.25 16.8325 3.25 12ZM12 6.25C12.4142 6.25 12.75 6.58579 12.75 7V12.1893L15.0303 14.4697C15.3232 14.7626 15.3232 15.2374 15.0303 15.5303C14.7374 15.8232 14.2626 15.8232 13.9697 15.5303L11.4697 13.0303C11.329 12.8897 11.25 12.6989 11.25 12.5V7C11.25 6.58579 11.5858 6.25 12 6.25Z" fill="#121210"/>
</svg>
