<svg width="current" height="current" viewBox="0 0 24 24" fill="none" xmlns="http://www.w3.org/2000/svg">
<path fill-rule="evenodd" clip-rule="evenodd" d="M2.81744 12C3.30471 13.062 4.26945 14.5517 5.70816 15.8106C7.2697 17.1769 9.36251 18.25 12 18.25C14.6375 18.25 16.7303 17.1769 18.2918 15.8106C19.7305 14.5517 20.6953 13.062 21.1826 12C20.6953 10.938 19.7305 9.44831 18.2918 8.18943C16.7303 6.82309 14.6375 5.75 12 5.75C9.36251 5.75 7.2697 6.82309 5.70816 8.18943C4.26945 9.44831 3.30471 10.938 2.81744 12ZM4.72041 7.06057C6.49221 5.51024 8.92321 4.25 12 4.25C15.0768 4.25 17.5078 5.51024 19.2796 7.06057C21.041 8.60182 22.1778 10.4509 22.6944 11.7166C22.7685 11.8983 22.7685 12.1017 22.6944 12.2834C22.1778 13.5491 21.041 15.3982 19.2796 16.9394C17.5078 18.4898 15.0768 19.75 12 19.75C8.92321 19.75 6.49221 18.4898 4.72041 16.9394C2.95898 15.3982 1.82223 13.5491 1.30561 12.2834C1.23146 12.1017 1.23146 11.8983 1.30561 11.7166C1.82223 10.4509 2.95898 8.60182 4.72041 7.06057Z" fill="#121210"/>
<path fill-rule="evenodd" clip-rule="evenodd" d="M12 8.75C10.2051 8.75 8.75 10.2051 8.75 12C8.75 13.7949 10.2051 15.25 12 15.25C13.7949 15.25 15.25 13.7949 15.25 12C15.25 10.2051 13.7949 8.75 12 8.75ZM7.25 12C7.25 9.37665 9.37665 7.25 12 7.25C14.6234 7.25 16.75 9.37665 16.75 12C16.75 14.6234 14.6234 16.75 12 16.75C9.37665 16.75 7.25 14.6234 7.25 12Z" fill="#121210"/>
</svg>
