<svg width="24" height="24" viewBox="0 0 24 24" fill="none" xmlns="http://www.w3.org/2000/svg">
<path fill-rule="evenodd" clip-rule="evenodd" d="M3.25 5C3.25 4.58579 3.58579 4.25 4 4.25H5C5.41421 4.25 5.75 4.58579 5.75 5C5.75 5.41421 5.41421 5.75 5 5.75H4C3.58579 5.75 3.25 5.41421 3.25 5ZM8.25 5C8.25 4.58579 8.58579 4.25 9 4.25H20C20.4142 4.25 20.75 4.58579 20.75 5C20.75 5.41421 20.4142 5.75 20 5.75H9C8.58579 5.75 8.25 5.41421 8.25 5ZM3.25 12C3.25 11.5858 3.58579 11.25 4 11.25H5C5.41421 11.25 5.75 11.5858 5.75 12C5.75 12.4142 5.41421 12.75 5 12.75H4C3.58579 12.75 3.25 12.4142 3.25 12ZM8.25 12C8.25 11.5858 8.58579 11.25 9 11.25H20C20.4142 11.25 20.75 11.5858 20.75 12C20.75 12.4142 20.4142 12.75 20 12.75H9C8.58579 12.75 8.25 12.4142 8.25 12ZM3.25 19C3.25 18.5858 3.58579 18.25 4 18.25H5C5.41421 18.25 5.75 18.5858 5.75 19C5.75 19.4142 5.41421 19.75 5 19.75H4C3.58579 19.75 3.25 19.4142 3.25 19ZM8.25 19C8.25 18.5858 8.58579 18.25 9 18.25H20C20.4142 18.25 20.75 18.5858 20.75 19C20.75 19.4142 20.4142 19.75 20 19.75H9C8.58579 19.75 8.25 19.4142 8.25 19Z" fill="white"/>
</svg>
