<svg width="120" height="28" viewBox="0 0 120 28" fill="none" xmlns="http://www.w3.org/2000/svg">
<g clip-path="url(#clip0_183_38432)">
<path fill-rule="evenodd" clip-rule="evenodd" d="M43 14.5C41.3431 14.5 40 15.8431 40 17.5C40 19.1569 41.3431 20.5 43 20.5C44.6569 20.5 46 19.1569 46 17.5C46 15.8431 44.6569 14.5 43 14.5ZM37 17.5C37 14.1863 39.6863 11.5 43 11.5C46.3137 11.5 49 14.1863 49 17.5C49 20.8137 46.3137 23.5 43 23.5C39.6863 23.5 37 20.8137 37 17.5Z" fill="#121210"/>
<path fill-rule="evenodd" clip-rule="evenodd" d="M37 26.5V10.5H40V26.5H37Z" fill="#121210"/>
<path fill-rule="evenodd" clip-rule="evenodd" d="M80 14.5C78.3431 14.5 77 15.8431 77 17.5C77 19.1569 78.3431 20.5 80 20.5C81.6569 20.5 83 19.1569 83 17.5C83 15.8431 81.6569 14.5 80 14.5ZM74 17.5C74 14.1863 76.6863 11.5 80 11.5C83.3137 11.5 86 14.1863 86 17.5C86 20.8137 83.3137 23.5 80 23.5C76.6863 23.5 74 20.8137 74 17.5Z" fill="#FFD337"/>
<path fill-rule="evenodd" clip-rule="evenodd" d="M74 26.5V10.5H77V26.5H74Z" fill="#FFD337"/>
<path fill-rule="evenodd" clip-rule="evenodd" d="M66 23.5V10.5H69V23.5H66Z" fill="#121210"/>
<path fill-rule="evenodd" clip-rule="evenodd" d="M68.6999 12.3605C70.0121 11.6992 71.5118 11.5 72.5 11.5V14.5C71.8215 14.5 70.8213 14.6508 70.0501 15.0395C69.3283 15.4033 69 15.8483 69 16.5H66C66 14.3517 67.3383 13.0467 68.6999 12.3605Z" fill="#121210"/>
<path fill-rule="evenodd" clip-rule="evenodd" d="M54.19 19.5H63.5V18C63.5 15.3686 62.4778 13.5499 61.0563 12.4241C59.7013 11.351 58.1042 11 57 11C55.9401 11 54.4465 11.374 53.1966 12.4739C51.8951 13.6192 51 15.4257 51 18C51 20.6314 52.0222 22.4501 53.4437 23.5759C54.7987 24.649 56.3958 25 57.5 25V22C56.9376 22 56.0347 21.801 55.3063 21.2241C54.8641 20.8739 54.4297 20.342 54.19 19.5ZM55.1784 14.7261C54.789 15.0688 54.3851 15.6138 54.1659 16.5H60.31C60.0703 15.658 59.6359 15.1261 59.1937 14.7759C58.4653 14.199 57.5624 14 57 14C56.5599 14 55.8035 14.176 55.1784 14.7261Z" fill="#121210"/>
<path fill-rule="evenodd" clip-rule="evenodd" d="M91.19 19.5H100.5V18C100.5 15.3686 99.4778 13.5499 98.0563 12.4241C96.7013 11.351 95.1042 11 94 11C92.9401 11 91.4465 11.374 90.1966 12.4739C88.8951 13.6192 88 15.4257 88 18C88 20.6314 89.0222 22.4501 90.4437 23.5759C91.7987 24.649 93.3958 25 94.5 25V22C93.9376 22 93.0347 21.801 92.3063 21.2241C91.8641 20.8739 91.4297 20.342 91.19 19.5ZM92.1784 14.7261C91.789 15.0688 91.3851 15.6138 91.1659 16.5H97.31C97.0703 15.658 96.6359 15.1261 96.1937 14.7759C95.4653 14.199 94.5624 14 94 14C93.5599 14 92.8035 14.176 92.1784 14.7261Z" fill="#FFD337"/>
<path fill-rule="evenodd" clip-rule="evenodd" d="M104 17V8H107V17C107 17.7037 107.203 18.7729 107.755 19.616C108.254 20.3783 109.052 21 110.5 21V24C107.948 24 106.246 22.7884 105.245 21.259C104.297 19.8105 104 18.1296 104 17Z" fill="#FFD337"/>
<path fill-rule="evenodd" clip-rule="evenodd" d="M110.5 15H102V12H110.5V15Z" fill="#FFD337"/>
<path fill-rule="evenodd" clip-rule="evenodd" d="M113.5 17V8H116.5V17C116.5 17.7037 116.703 18.7729 117.255 19.616C117.754 20.3783 118.552 21 120 21V24C117.448 24 115.746 22.7884 114.745 21.259C113.797 19.8105 113.5 18.1296 113.5 17Z" fill="#121210"/>
<path fill-rule="evenodd" clip-rule="evenodd" d="M120 15H111.5V12H120V15Z" fill="#121210"/>
<path fill-rule="evenodd" clip-rule="evenodd" d="M14.1455 1.81373C15.1544 2.38353 17.1831 4.04348 17.8822 6.6038C18.2974 8.12435 18.4683 10.0474 18.1216 11.8201C17.7746 13.5945 16.8687 15.3745 14.994 16.2796C13.5082 16.9969 12.5038 17.3842 11.7189 17.5863C10.9023 17.7966 10.3553 17.7966 9.8574 17.7966H9.85292C9.25815 17.7966 8.776 17.3144 8.776 16.7196C8.776 16.1249 9.25815 15.6427 9.85292 15.6427C10.3036 15.6427 10.632 15.6421 11.1819 15.5005C11.7658 15.3501 12.6231 15.0325 14.0577 14.3399C15.1034 13.8351 15.7362 12.7953 16.0078 11.4067C16.2797 10.0164 16.1491 8.43328 15.8044 7.17114C15.2987 5.3192 13.7396 4.04734 13.063 3.67618L13.0179 3.6514L12.9753 3.62242C12.1792 3.08089 10.7355 2.40406 9.09859 2.2087C7.48657 2.0163 5.74334 2.29297 4.19711 3.56393C2.64907 4.83638 2.16318 6.33368 2.15398 7.71277C2.14446 9.13781 2.64956 10.4474 3.10175 11.1851L3.13918 11.2462L3.16819 11.3117C3.23417 11.4606 3.30735 11.6018 3.40178 11.784C3.44244 11.8625 3.48703 11.9486 3.53669 12.0461C3.69084 12.3489 3.86461 12.7094 4.02429 13.144C4.34822 14.0258 4.59019 15.1469 4.59019 16.7196C4.59019 18.3059 5.19039 20.4158 6.42641 22.2307C7.65167 24.0298 9.44295 25.4583 11.7879 25.8615C12.3741 25.9623 12.7675 26.5192 12.6668 27.1053C12.566 27.6915 12.0091 28.085 11.4229 27.9842C8.37311 27.4598 6.11832 25.6047 4.6462 23.4431C3.18484 21.2973 2.43635 18.7694 2.43635 16.7196C2.43635 15.3835 2.23347 14.5153 2.00255 13.8867C1.88481 13.5662 1.75366 13.2912 1.61723 13.0232C1.58626 12.9624 1.55276 12.8977 1.51798 12.8306C1.42261 12.6466 1.31761 12.4441 1.22866 12.25C0.615798 11.2255 -0.012219 9.55565 0.000180659 7.69839C0.0131351 5.75804 0.730309 3.62548 2.82944 1.90005C4.93038 0.173122 7.30286 -0.174762 9.35385 0.0700295C11.3534 0.308689 13.1003 1.11256 14.1455 1.81373Z" fill="#FFD337"/>
<path d="M11.7112 2.15358L15.4805 4.30743L16.0189 5.92281L16.5574 10.769L16.0189 14.5382C15.4805 15.2561 13.7574 16.9074 11.1728 17.769C8.58816 18.6305 5.07021 17.41 3.63431 16.692V15.6151L2.01893 12.3843L1.48047 9.15358L2.01893 5.92281L4.17278 2.15358L7.40354 1.07666L11.7112 2.15358Z" fill="#FFD337"/>
<path fill-rule="evenodd" clip-rule="evenodd" d="M21.896 0.0687953C19.7075 0.306669 17.7925 1.11699 16.6633 1.81655C16.1577 2.12976 16.0017 2.79356 16.3149 3.29917C16.6281 3.80478 17.2919 3.96075 17.7975 3.64753C18.6847 3.09797 20.2949 2.40935 22.1287 2.21003C23.9461 2.01251 25.9115 2.29996 27.6404 3.59418C29.3595 4.88095 29.8743 6.37243 29.8841 7.71353C29.8944 9.114 29.3484 10.4099 28.8525 11.1466L28.8198 11.1952L28.7926 11.2471C28.7456 11.3366 28.6781 11.4524 28.5984 11.5893C28.3758 11.9716 28.0572 12.5187 27.8193 13.1181C27.4651 14.0101 27.2089 15.1409 27.2089 16.7197C27.2089 18.2807 26.559 20.3772 25.2019 22.192C23.8598 23.9866 21.8724 25.4457 19.2332 25.8589C18.6456 25.9509 18.2438 26.5019 18.3358 27.0895C18.4278 27.6771 18.9788 28.0789 19.5664 27.9868C22.8512 27.4725 25.3068 25.6481 26.9267 23.4819C28.5316 21.336 29.3627 18.7947 29.3627 16.7197C29.3627 15.3897 29.5757 14.5311 29.8211 13.9128C29.999 13.4647 30.1694 13.1749 30.3597 12.8512C30.4574 12.685 30.5604 12.5098 30.6724 12.2997C31.3486 11.2749 32.0517 9.58595 32.0379 7.69774C32.0234 5.71939 31.2171 3.58101 28.9311 1.8699C26.6552 0.166234 24.1011 -0.170872 21.896 0.0687953Z" fill="#121210"/>
<ellipse cx="16.0192" cy="16.8268" rx="2.01923" ry="1.21154" fill="#121210"/>
<circle cx="12.3785" cy="14.7833" r="0.728146" fill="#121210"/>
<circle cx="19.6598" cy="14.7833" r="0.728146" fill="#121210"/>
</g>
<defs>
<clipPath id="clip0_183_38432">
<rect width="120" height="28" fill="white"/>
</clipPath>
</defs>
</svg>
