<svg width="24" height="24" viewBox="0 0 24 24" fill="none" xmlns="http://www.w3.org/2000/svg">
<path fill-rule="evenodd" clip-rule="evenodd" d="M4.25 5C4.25 4.58579 4.58579 4.25 5 4.25H11C11.4142 4.25 11.75 4.58579 11.75 5C11.75 5.41421 11.4142 5.75 11 5.75H5.75V18.25H11C11.4142 18.25 11.75 18.5858 11.75 19C11.75 19.4142 11.4142 19.75 11 19.75H5C4.58579 19.75 4.25 19.4142 4.25 19V5Z" fill="#121210"/>
<path fill-rule="evenodd" clip-rule="evenodd" d="M9.75 12C9.75 11.5858 10.0858 11.25 10.5 11.25H18.5C18.9142 11.25 19.25 11.5858 19.25 12C19.25 12.4142 18.9142 12.75 18.5 12.75H10.5C10.0858 12.75 9.75 12.4142 9.75 12Z" fill="#121210"/>
<path fill-rule="evenodd" clip-rule="evenodd" d="M15.4697 8.46967C15.7626 8.17678 16.2374 8.17678 16.5303 8.46967L19.5303 11.4697C19.8232 11.7626 19.8232 12.2374 19.5303 12.5303L16.5303 15.5303C16.2374 15.8232 15.7626 15.8232 15.4697 15.5303C15.1768 15.2374 15.1768 14.7626 15.4697 14.4697L17.9393 12L15.4697 9.53033C15.1768 9.23744 15.1768 8.76256 15.4697 8.46967Z" fill="#121210"/>
</svg>
