<svg width="24" height="24" viewBox="0 0 24 24" fill="currentColor" xmlns="http://www.w3.org/2000/svg">
<path fill-rule="evenodd" clip-rule="evenodd" d="M12 2.76476C12.4142 2.76476 12.75 3.10055 12.75 3.51476L12.75 11.25L20.4853 11.25C20.8995 11.25 21.2353 11.5858 21.2353 12C21.2353 12.4143 20.8995 12.75 20.4853 12.75L12.75 12.75L12.75 20.4853C12.75 20.8995 12.4142 21.2353 12 21.2353C11.5858 21.2353 11.25 20.8995 11.25 20.4853L11.25 12.75L3.51472 12.75C3.10051 12.75 2.76472 12.4143 2.76472 12C2.76472 11.5858 3.10051 11.25 3.51472 11.25L11.25 11.25L11.25 3.51476C11.25 3.10055 11.5858 2.76476 12 2.76476Z"/>
</svg>
