<svg width="24" height="24" viewBox="0 0 24 24" fill="none" xmlns="http://www.w3.org/2000/svg">
<path fill-rule="evenodd" clip-rule="evenodd" d="M9.28849 3.76283C9.39058 3.45657 9.67718 3.25 10 3.25H14C14.3228 3.25 14.6094 3.45657 14.7115 3.76283L15.0791 4.86546C15.2974 5.52039 16.0053 5.87434 16.6602 5.65603L17.7628 5.28849C18.102 5.17543 18.4738 5.31749 18.6512 5.6279L20.6512 9.1279C20.819 9.42155 20.7695 9.79118 20.5303 10.0303L19.4445 11.1161C18.9564 11.6043 18.9564 12.3957 19.4445 12.8839L20.5303 13.9697C20.7695 14.2088 20.819 14.5785 20.6512 14.8721L18.6512 18.3721C18.4738 18.6825 18.102 18.8246 17.7628 18.7115L16.6602 18.344C16.0053 18.1257 15.2974 18.4796 15.0791 19.1345L14.7115 20.2372C14.6094 20.5434 14.3228 20.75 14 20.75H10C9.67718 20.75 9.39058 20.5434 9.28849 20.2372L8.92095 19.1345C8.70264 18.4796 7.99474 18.1257 7.33981 18.344L6.23718 18.7115C5.89801 18.8246 5.5262 18.6825 5.34882 18.3721L3.34882 14.8721C3.19618 14.605 3.22216 14.2717 3.41435 14.0315L4.41484 12.7809C4.78006 12.3243 4.78006 11.6757 4.41484 11.2191L3.41435 9.96852C3.22216 9.72828 3.19618 9.39502 3.34882 9.1279L5.34882 5.6279C5.5262 5.31749 5.89801 5.17543 6.23718 5.28849L7.33981 5.65603C7.99474 5.87434 8.70264 5.52039 8.92095 4.86546L9.28849 3.76283ZM10.5406 4.75L10.344 5.3398C9.86369 6.78065 8.30631 7.55934 6.86547 7.07906L6.34613 6.90595L4.90409 9.42952L5.58614 10.2821C6.38963 11.2864 6.38963 12.7136 5.58614 13.7179L4.90409 14.5705L6.34613 17.0941L6.86547 16.9209C8.30631 16.4407 9.86369 17.2194 10.344 18.6602L10.5406 19.25H13.4594L13.656 18.6602C14.1363 17.2194 15.6937 16.4407 17.1345 16.9209L17.6539 17.0941L19.0646 14.6253L18.3839 13.9445C17.3099 12.8706 17.3099 11.1294 18.3839 10.0555L19.0646 9.37473L17.6539 6.90595L17.1345 7.07906C15.6937 7.55934 14.1363 6.78065 13.656 5.3398L13.4594 4.75H10.5406Z" fill="#121210"/>
<path fill-rule="evenodd" clip-rule="evenodd" d="M12 9.75C10.7574 9.75 9.75 10.7574 9.75 12C9.75 13.2426 10.7574 14.25 12 14.25C13.2426 14.25 14.25 13.2426 14.25 12C14.25 10.7574 13.2426 9.75 12 9.75ZM8.25 12C8.25 9.92893 9.92894 8.25 12 8.25C14.0711 8.25 15.75 9.92893 15.75 12C15.75 14.0711 14.0711 15.75 12 15.75C9.92894 15.75 8.25 14.0711 8.25 12Z" fill="#121210"/>
</svg>
