<svg width="24" height="24" viewBox="0 0 24 24" fill="none" xmlns="http://www.w3.org/2000/svg">
<path fill-rule="evenodd" clip-rule="evenodd" d="M6.08498 5.02213C6.91834 4.47439 7.8558 4.25 8.5003 4.25C8.79669 4.25 9.06528 4.42455 9.18565 4.6954L11.1857 9.1954C11.3117 9.47904 11.25 9.81102 11.0305 10.0305C10.7516 10.3092 10.0995 10.9612 9.42571 11.6351C10.359 13.2348 11.6366 14.1998 12.3992 14.62L14.5313 12.9143C14.7597 12.7316 15.0736 12.6984 15.3352 12.8292L19.3352 14.8292C19.5893 14.9562 19.7498 15.2159 19.7498 15.5C19.7498 15.7819 19.6725 16.1209 19.5713 16.4415C19.4647 16.779 19.3115 17.1583 19.119 17.5386C18.7446 18.2785 18.1723 19.1197 17.4159 19.624C15.9658 20.5907 13.9637 20.2823 12.234 19.6106C10.4515 18.9185 8.67594 17.7361 7.47001 16.5304C4.82504 13.8859 3.82062 10.9574 4.25802 7.89399C4.45558 6.51031 5.22849 5.58507 6.08498 5.02213ZM6.90885 6.27562C6.34645 6.64526 5.86946 7.22003 5.74296 8.10601C5.38078 10.6426 6.17465 13.1141 8.53058 15.4696C9.589 16.5279 11.1882 17.5954 12.7769 18.2123C14.4184 18.8497 15.7838 18.9093 16.5838 18.376C17.0274 18.0803 17.455 17.5048 17.7806 16.8614C17.9382 16.55 18.06 16.246 18.1409 15.9898C18.1485 15.9656 18.1557 15.9423 18.1623 15.9198L15.0936 14.3854L12.9684 16.0857C12.7574 16.2544 12.472 16.2967 12.2212 16.1963C11.2387 15.8032 9.12161 14.4189 7.82952 11.8355C7.68512 11.5468 7.74165 11.1981 7.96984 10.9698C8.55857 10.3808 9.18373 9.75568 9.6057 9.33382L8.03752 5.80542C7.70025 5.87743 7.29075 6.02461 6.90885 6.27562Z" fill="#121210"/>
</svg>
