<svg width="24" height="24" viewBox="0 0 24 24" fill="none" xmlns="http://www.w3.org/2000/svg">
<g clip-path="url(#clip0_58_1303)">
<circle cx="12" cy="12" r="12" fill="#121210"/>
<path d="M9.50008 19.5001C10.8801 19.5001 12.0002 18.38 12.0002 17V14.4999H9.50008C8.12004 14.4999 7 15.62 7 17C7 18.38 8.12004 19.5001 9.50008 19.5001Z" fill="#0ACF83"/>
<path d="M7 12.0002C7 10.6201 8.12004 9.50008 9.50008 9.50008H12.0002V14.5002H9.50008C8.12004 14.5002 7 13.3802 7 12.0002Z" fill="#A259FF"/>
<path d="M7 6.99984C7 5.61979 8.12004 4.49976 9.50008 4.49976H12.0002V9.49992H9.50008C8.12004 9.49992 7 8.37988 7 6.99984Z" fill="#F24E1E"/>
<path d="M12 4.49976H14.5001C15.8801 4.49976 17.0002 5.61979 17.0002 6.99984C17.0002 8.37988 15.8801 9.49992 14.5001 9.49992H12V4.49976Z" fill="#FF7262"/>
<path d="M17.0002 12.0002C17.0002 13.3802 15.8801 14.5002 14.5001 14.5002C13.12 14.5002 12 13.3802 12 12.0002C12 10.6201 13.12 9.50008 14.5001 9.50008C15.8801 9.50008 17.0002 10.6201 17.0002 12.0002Z" fill="#1ABCFE"/>
</g>
<defs>
<clipPath id="clip0_58_1303">
<rect width="24" height="24" fill="white"/>
</clipPath>
</defs>
</svg>
