<svg width="40" height="36" viewBox="0 0 40 36" fill="none" xmlns="http://www.w3.org/2000/svg">
<path fill-rule="evenodd" clip-rule="evenodd" d="M17.6607 3.26445C18.9203 3.97584 21.4531 6.04828 22.3259 9.24484C22.8443 11.1433 23.0576 13.5441 22.6248 15.7574C22.1916 17.9727 21.0606 20.1951 18.7201 21.325C16.865 22.2206 15.611 22.7042 14.6311 22.9565C13.6116 23.219 12.9286 23.219 12.307 23.219H12.3014C11.5588 23.219 10.9568 22.617 10.9568 21.8745C10.9568 21.1319 11.5588 20.5299 12.3014 20.5299C12.864 20.5299 13.274 20.5291 13.9606 20.3524C14.6897 20.1646 15.7599 19.7681 17.551 18.9034C18.8566 18.2731 19.6467 16.975 19.9857 15.2413C20.3252 13.5055 20.1621 11.5289 19.7318 9.95317C19.1005 7.64102 17.1539 6.05311 16.3092 5.58971L16.2528 5.55877L16.1996 5.52259C15.2057 4.84649 13.4032 4.00147 11.3596 3.75756C9.34699 3.51735 7.17056 3.86277 5.24009 5.44957C3.30736 7.03823 2.70074 8.90761 2.68924 10.6294C2.67736 12.4086 3.30798 14.0436 3.87254 14.9646L3.91927 15.0409L3.95549 15.1226C4.03786 15.3086 4.12922 15.4849 4.24713 15.7124C4.29789 15.8103 4.35356 15.9178 4.41556 16.0396C4.60801 16.4176 4.82497 16.8676 5.02433 17.4103C5.42875 18.5112 5.73086 19.9109 5.73086 21.8745C5.73086 23.8549 6.4802 26.4891 8.02338 28.7551C9.55312 31.0013 11.7895 32.7847 14.7172 33.2881C15.449 33.4139 15.9403 34.1092 15.8145 34.841C15.6886 35.5728 14.9934 36.0641 14.2615 35.9383C10.4538 35.2836 7.63872 32.9675 5.80078 30.2687C3.97628 27.5897 3.04178 24.4337 3.04178 21.8745C3.04178 20.2063 2.78849 19.1224 2.50018 18.3376C2.35318 17.9374 2.18944 17.5941 2.01912 17.2595C1.98045 17.1835 1.93862 17.1028 1.8952 17.019C1.77613 16.7893 1.64504 16.5364 1.53399 16.2941C0.768824 15.0151 -0.0152554 12.9302 0.000225552 10.6114C0.0163991 8.18892 0.911791 5.52641 3.53255 3.37221C6.15558 1.21614 9.11763 0.781809 11.6783 1.08743C14.1748 1.3854 16.3557 2.38903 17.6607 3.26445Z" fill="#FFD337"/>
<path d="M14.6217 3.68878L19.3276 6.37785L19.9999 8.39466L20.6722 14.4451L19.9999 19.151C19.3276 20.0473 17.1764 22.1089 13.9495 23.1846C10.7226 24.2602 6.33043 22.7364 4.53771 21.84V20.4955L2.5209 16.4619L1.84863 12.4283L2.5209 8.39466L5.20998 3.68878L9.24359 2.34424L14.6217 3.68878Z" fill="#FFD337"/>
<path fill-rule="evenodd" clip-rule="evenodd" d="M27.3376 1.08589C24.6052 1.38288 22.2144 2.39456 20.8045 3.26796C20.1733 3.65901 19.9786 4.48776 20.3696 5.11901C20.7607 5.75027 21.5894 5.94499 22.2207 5.55394C23.3282 4.86782 25.3387 4.00807 27.6282 3.75922C29.8971 3.51261 32.3509 3.8715 34.5095 5.48733C36.6558 7.09386 37.2985 8.95598 37.3107 10.6303C37.3236 12.3788 36.642 13.9967 36.0228 14.9166L35.982 14.9772L35.948 15.0419C35.8893 15.1537 35.8051 15.2983 35.7056 15.4692C35.4276 15.9466 35.0299 16.6296 34.7328 17.3779C34.2906 18.4917 33.9707 19.9034 33.9707 21.8745C33.9707 23.8235 33.1594 26.441 31.465 28.7067C29.7894 30.9472 27.3081 32.7689 24.0131 33.2849C23.2794 33.3997 22.7778 34.0876 22.8927 34.8212C23.0076 35.5548 23.6954 36.0565 24.4291 35.9416C28.5301 35.2995 31.596 33.0216 33.6185 30.3172C35.6221 27.638 36.6598 24.4652 36.6598 21.8745C36.6598 20.214 36.9257 19.1421 37.2321 18.3701C37.4542 17.8107 37.6669 17.4489 37.9046 17.0447C38.0266 16.8372 38.1551 16.6185 38.2949 16.3562C39.1391 15.0767 40.017 12.9681 39.9997 10.6106C39.9816 8.14066 38.975 5.4709 36.121 3.33457C33.2794 1.20754 30.0906 0.786666 27.3376 1.08589Z" fill="#121210"/>
<ellipse cx="19.9995" cy="22.0082" rx="2.52101" ry="1.51261" fill="#121210"/>
<circle cx="15.455" cy="19.4569" r="0.909091" fill="#121210"/>
<circle cx="24.5448" cy="19.4569" r="0.909091" fill="#121210"/>
</svg>
