<svg width="20" height="20" viewBox="0 0 24 24" fill="none" xmlns="http://www.w3.org/2000/svg">
<path d="M19.9995 12.3584C19.9995 11.8071 19.9462 11.2381 19.8573 10.7046H12.1572V13.8522H16.5674C16.3896 14.8658 15.8028 15.7549 14.9314 16.324L17.5633 18.3691C19.1104 16.9287 19.9995 14.8302 19.9995 12.3584Z" fill="#4280EF"/>
<path d="M12.1573 20.3253C14.3624 20.3253 16.2118 19.5963 17.5633 18.3515L14.9314 16.3242C14.2024 16.8221 13.2598 17.1066 12.1573 17.1066C10.0233 17.1066 8.22721 15.6662 7.56923 13.7456L4.86621 15.8263C6.25328 18.5827 9.06302 20.3253 12.1573 20.3253Z" fill="#34A353"/>
<path d="M7.56995 13.7277C7.23207 12.7141 7.23207 11.6115 7.56995 10.5979L4.86693 8.49951C3.71102 10.8113 3.71102 13.5321 4.86693 15.8262L7.56995 13.7277Z" fill="#F6B704"/>
<path d="M12.1573 7.23683C13.3132 7.21904 14.4513 7.66363 15.2871 8.46386L17.6167 6.1165C16.1407 4.72941 14.1845 3.98253 12.1573 4.00031C9.06302 4.00031 6.25328 5.74306 4.86621 8.49943L7.56923 10.5978C8.22721 8.65947 10.0233 7.23683 12.1573 7.23683Z" fill="#E54335"/>
</svg>
