<svg width="24" height="24" viewBox="0 0 24 24" fill="currentColor" xmlns="http://www.w3.org/2000/svg">
<path fill-rule="evenodd" clip-rule="evenodd" d="M20.4205 3.37895C20.6266 3.51848 20.75 3.75114 20.75 4V18C20.75 18.3067 20.5633 18.5825 20.2785 18.6964L15.2785 20.6964C15.1138 20.7622 14.9311 20.7676 14.7628 20.7115L9.02346 18.7984L4.27854 20.6964C4.04747 20.7888 3.78561 20.7606 3.57953 20.6211C3.37345 20.4815 3.25 20.2489 3.25 20V6C3.25 5.69333 3.43671 5.41754 3.72146 5.30365L8.72146 3.30365C8.88616 3.23776 9.06888 3.2324 9.23717 3.28849L14.9765 5.20161L19.7215 3.30365C19.9525 3.21122 20.2144 3.23943 20.4205 3.37895ZM14.25 6.54057L9.75 5.04057V17.4594L14.25 18.9594V6.54057ZM15.75 18.8922L19.25 17.4922V5.10778L15.75 6.50778V18.8922ZM8.25 17.4922V5.10778L4.75 6.50778V18.8922L8.25 17.4922Z" fill="currentColor"/>
</svg>
