<svg width="24" height="24" viewBox="0 0 24 24" fill="none" xmlns="http://www.w3.org/2000/svg">
<path d="M15 21L9 18.9L4.35 20.7C4.01667 20.8333 3.70833 20.7957 3.425 20.587C3.14167 20.3783 3 20.0993 3 19.75V5.75C3 5.53333 3.06267 5.34167 3.188 5.175C3.31333 5.00833 3.484 4.88333 3.7 4.8L9 3L15 5.1L19.65 3.3C19.9833 3.16667 20.2917 3.20433 20.575 3.413C20.8583 3.62167 21 3.90067 21 4.25V18.25C21 18.4667 20.9373 18.6583 20.812 18.825C20.6867 18.9917 20.516 19.1167 20.3 19.2L15 21ZM14 18.55V6.85L10 5.45V17.15L14 18.55ZM16 18.55L19 17.55V5.7L16 6.85V18.55ZM5 18.3L8 17.15V5.45L5 6.45V18.3Z" fill="#121210"/>
</svg>
