<svg width="24" height="24" viewBox="0 0 24 24" fill="none" xmlns="http://www.w3.org/2000/svg">
<path fill-rule="evenodd" clip-rule="evenodd" d="M10.7134 3.59408C11.4062 3.98534 12.7992 5.12519 13.2793 6.8833C13.5644 7.92742 13.6817 9.24791 13.4436 10.4652C13.2054 11.6836 12.5833 12.9059 11.296 13.5274C10.2758 14.02 9.58608 14.2859 9.04709 14.4247C8.48637 14.5691 8.11075 14.5691 7.76884 14.5691H7.76575C7.35734 14.5691 7.02626 14.238 7.02626 13.8296C7.02626 13.4212 7.35734 13.0901 7.76575 13.0901C8.0752 13.0901 8.30072 13.0897 8.6783 12.9924C9.07932 12.8892 9.66794 12.6711 10.653 12.1955C11.3712 11.8488 11.8057 11.1349 11.9921 10.1813C12.1788 9.22668 12.0892 8.13955 11.8525 7.27288C11.5053 6.00119 10.4347 5.12784 9.97006 4.87297L9.93904 4.85596L9.90978 4.83606C9.36314 4.4642 8.37179 3.99944 7.24778 3.86529C6.14084 3.73317 4.94381 3.92316 3.88205 4.7959C2.81905 5.66966 2.48541 6.69782 2.47908 7.6448C2.47255 8.62334 2.81939 9.52259 3.12989 10.0292L3.1556 10.0711L3.17552 10.1161C3.22082 10.2183 3.27107 10.3153 3.33592 10.4404C3.36384 10.4943 3.39446 10.5534 3.42856 10.6204C3.53441 10.8283 3.65373 11.0758 3.76338 11.3743C3.98581 11.9798 4.15197 12.7497 4.15197 13.8296C4.15197 14.9188 4.56411 16.3677 5.41286 17.6139C6.25421 18.8493 7.48424 19.8302 9.09446 20.1071C9.49697 20.1763 9.76716 20.5587 9.69795 20.9612C9.62875 21.3637 9.24635 21.6339 8.84384 21.5647C6.74961 21.2046 5.2013 19.9307 4.19043 18.4464C3.18695 16.973 2.67298 15.2371 2.67298 13.8296C2.67298 12.9121 2.53367 12.316 2.3751 11.8843C2.29425 11.6642 2.20419 11.4754 2.11051 11.2913C2.08925 11.2496 2.06624 11.2052 2.04236 11.1591C1.97687 11.0328 1.90477 10.8937 1.84369 10.7604C1.42285 10.0569 0.99161 8.91026 1.00012 7.63493C1.00902 6.30254 1.50148 4.83816 2.9429 3.65335C4.38557 2.46751 6.0147 2.22863 7.42305 2.39672C8.79613 2.5606 9.99562 3.1126 10.7134 3.59408Z" fill="#FFE175"/>
<path d="M9.04181 3.82739L11.63 5.30638L11.9998 6.41562L12.3695 9.74335L11.9998 12.3316C11.63 12.8246 10.4469 13.9585 8.67206 14.5501C6.89727 15.1417 4.48159 14.3036 3.49559 13.8106V13.0711L2.38635 10.8526L2.0166 8.63411L2.38635 6.41562L3.86534 3.82739L6.08383 3.08789L9.04181 3.82739Z" fill="#FFE175"/>
<path fill-rule="evenodd" clip-rule="evenodd" d="M16.0357 2.39587C14.5329 2.55921 13.2179 3.11564 12.4425 3.59601C12.0953 3.81109 11.9882 4.2669 12.2033 4.61409C12.4184 4.96128 12.8742 5.06838 13.2214 4.8533C13.8305 4.47593 14.9363 4.00307 16.1955 3.86621C17.4434 3.73057 18.793 3.92796 19.9803 4.81667C21.1607 5.70026 21.5142 6.72442 21.5209 7.64532C21.528 8.60699 21.1531 9.49682 20.8126 10.0027L20.7901 10.0361L20.7714 10.0717C20.7391 10.1332 20.6928 10.2127 20.6381 10.3067C20.4852 10.5693 20.2664 10.9449 20.103 11.3565C19.8599 11.969 19.6839 12.7455 19.6839 13.8296C19.6839 14.9015 19.2377 16.3412 18.3057 17.5873C17.3842 18.8196 16.0195 19.8216 14.2072 20.1053C13.8037 20.1685 13.5278 20.5468 13.591 20.9503C13.6542 21.3538 14.0325 21.6297 14.436 21.5665C16.6916 21.2133 18.3778 19.9605 19.4902 18.4731C20.5922 16.9995 21.1629 15.2545 21.1629 13.8296C21.1629 12.9163 21.3091 12.3268 21.4777 11.9022C21.5998 11.5945 21.7168 11.3955 21.8475 11.1732C21.9146 11.0591 21.9853 10.9388 22.0622 10.7946C22.5265 10.0908 23.0094 8.93107 22.9999 7.63448C22.9899 6.276 22.4362 4.80763 20.8665 3.63264C19.3037 2.46278 17.5498 2.2313 16.0357 2.39587Z" fill="#6A737C"/>
<ellipse cx="11.9998" cy="13.9032" rx="1.38655" ry="0.831933" fill="#6A737C"/>
<circle cx="9.5" cy="12.5" r="0.5" fill="#6A737C"/>
<circle cx="14.5" cy="12.5" r="0.5" fill="#6A737C"/>
</svg>
