<svg width="current" height="current" viewBox="0 0 24 24" fill="none" xmlns="http://www.w3.org/2000/svg">
<path d="M8.5 3L10.5 3.5L10.5457 3.56849C11.0066 4.25993 12.017 4.27622 12.5 3.6L16 3L19 3.5L21.5 5L22.5 7.5L22 9L20.5 12.5L20 16.5L18.5 19C18 19.3333 16.5 20.3 14.5 21.5C13.5 22 10 22 9 21.5L5.5 19L3.5 16.5L3 13.5L2.5 11.5L1.5 9V7.5L2 5.5L3 4L4.5 3L6.5 2.5L8.5 3Z" fill="#FFF2C2"/>
<path fill-rule="evenodd" clip-rule="evenodd" d="M13.2793 6.88336C12.7992 5.12525 11.4062 3.9854 10.7134 3.59414C9.99562 3.11266 8.79613 2.56066 7.42305 2.39678C6.0147 2.22869 4.38557 2.46757 2.9429 3.65341C1.50148 4.83822 1.00902 6.3026 1.00012 7.63499C0.99161 8.91032 1.42285 10.057 1.84369 10.7605C1.90476 10.8937 1.97685 11.0328 2.04233 11.1591L2.04236 11.1592L2.04242 11.1593C2.06628 11.2053 2.08926 11.2497 2.11051 11.2914C2.20419 11.4754 2.29425 11.6643 2.3751 11.8844C2.53367 12.316 2.67298 12.9122 2.67298 13.8297C2.67298 15.2372 3.18695 16.973 4.19043 18.4465C5.2013 19.9308 6.74961 21.2047 8.84384 21.5647C9.24635 21.6339 9.62875 21.3638 9.69795 20.9612C9.76716 20.5587 9.49697 20.1763 9.09446 20.1071C7.48424 19.8303 6.25421 18.8494 5.41286 17.614C4.63312 16.4691 4.22188 15.1531 4.16016 14.1022C5.33607 14.5605 7.21887 15.0346 8.67201 14.5502C8.77287 14.5166 8.87182 14.4812 8.96882 14.4443C8.99451 14.4381 9.0206 14.4316 9.04709 14.4248C9.58608 14.286 10.2758 14.02 11.296 13.5275C12.5833 12.906 13.2054 11.6837 13.4436 10.4653C13.6817 9.24797 13.5644 7.92749 13.2793 6.88336Z" fill="#FFD337"/>
<path fill-rule="evenodd" clip-rule="evenodd" d="M16.0357 2.39587C14.5329 2.55921 13.2179 3.11564 12.4425 3.59601C12.0953 3.81109 11.9882 4.2669 12.2033 4.61409C12.4184 4.96128 12.8742 5.06838 13.2214 4.8533C13.8305 4.47593 14.9363 4.00307 16.1955 3.86621C17.4434 3.73057 18.793 3.92796 19.9803 4.81667C21.1607 5.70026 21.5142 6.72442 21.5209 7.64532C21.528 8.60699 21.1531 9.49682 20.8126 10.0027L20.7901 10.0361L20.7714 10.0717C20.7391 10.1332 20.6928 10.2127 20.6381 10.3067C20.4852 10.5693 20.2664 10.9449 20.103 11.3565C19.8599 11.969 19.6839 12.7455 19.6839 13.8296C19.6839 14.9015 19.2377 16.3412 18.3057 17.5873C17.3842 18.8196 16.0195 19.8216 14.2072 20.1053C13.8037 20.1685 13.5278 20.5468 13.591 20.9503C13.6542 21.3538 14.0325 21.6297 14.436 21.5665C16.6916 21.2133 18.3778 19.9605 19.4902 18.4731C20.5922 16.9995 21.1629 15.2545 21.1629 13.8296C21.1629 12.9163 21.3091 12.3268 21.4777 11.9022C21.5998 11.5945 21.7168 11.3955 21.8475 11.1732C21.9146 11.0591 21.9853 10.9388 22.0622 10.7946C22.5265 10.0908 23.0094 8.93107 22.9999 7.63448C22.9899 6.276 22.4362 4.80763 20.8665 3.63264C19.3037 2.46278 17.5498 2.2313 16.0357 2.39587Z" fill="#FFD337"/>
<ellipse cx="11.9998" cy="13.9032" rx="1.38655" ry="0.831933" fill="#121210"/>
<circle cx="9.5" cy="12.5" r="0.5" fill="#121210"/>
<circle cx="14.5" cy="12.5" r="0.5" fill="#121210"/>
</svg>
