<svg width="24" height="24" viewBox="0 0 24 24" fill="none" xmlns="http://www.w3.org/2000/svg">
<path fill-rule="evenodd" clip-rule="evenodd" d="M10 4.75C7.10051 4.75 4.75 7.10051 4.75 10C4.75 12.8995 7.10051 15.25 10 15.25C12.8995 15.25 15.25 12.8995 15.25 10C15.25 7.10051 12.8995 4.75 10 4.75ZM3.25 10C3.25 6.27208 6.27208 3.25 10 3.25C13.7279 3.25 16.75 6.27208 16.75 10C16.75 13.7279 13.7279 16.75 10 16.75C6.27208 16.75 3.25 13.7279 3.25 10Z" fill="#121210"/>
<path fill-rule="evenodd" clip-rule="evenodd" d="M13.4697 13.9697C13.7626 13.6768 14.2374 13.6768 14.5303 13.9697L20.0303 19.4697C20.3232 19.7626 20.3232 20.2374 20.0303 20.5303C19.7374 20.8232 19.2626 20.8232 18.9697 20.5303L13.4697 15.0303C13.1768 14.7374 13.1768 14.2626 13.4697 13.9697Z" fill="#121210"/>
</svg>
