<svg width="16" height="16" viewBox="0 0 16 16" fill="none" xmlns="http://www.w3.org/2000/svg">
<path d="M7.99965 12.3909L4.60648 14.3783C4.45658 14.471 4.29986 14.5108 4.13634 14.4975C3.97281 14.4843 3.82972 14.4313 3.70708 14.3385C3.58444 14.2458 3.48904 14.1297 3.42091 13.9903C3.35277 13.851 3.33915 13.6954 3.38003 13.5237L4.27942 9.76753L1.27462 7.24355C1.13835 7.12431 1.05332 6.98837 1.01952 6.83574C0.985726 6.68311 0.99581 6.53419 1.04977 6.38897C1.10428 6.24323 1.18605 6.12399 1.29506 6.03124C1.40408 5.9385 1.55398 5.87888 1.74476 5.85238L5.71028 5.51452L7.24334 1.97697C7.31148 1.81798 7.41722 1.69874 7.56058 1.61924C7.70394 1.53975 7.8503 1.5 7.99965 1.5C8.14955 1.5 8.29591 1.53975 8.43872 1.61924C8.58153 1.69874 8.68728 1.81798 8.75596 1.97697L10.289 5.51452L14.2545 5.85238C14.4453 5.87888 14.5952 5.9385 14.7042 6.03124C14.8133 6.12399 14.895 6.24323 14.9495 6.38897C15.004 6.53472 15.0144 6.6839 14.9806 6.83653C14.9468 6.98917 14.8615 7.12484 14.7247 7.24355L11.7199 9.76753L12.6193 13.5237C12.6602 13.6959 12.6465 13.8517 12.5784 13.9911C12.5103 14.1305 12.4149 14.2463 12.2922 14.3385C12.1696 14.4313 12.0265 14.4843 11.863 14.4975C11.6994 14.5108 11.5427 14.471 11.3928 14.3783L7.99965 12.3909Z" fill="#E3E5E8"/>
</svg>
